<svg width="60" height="60" viewBox="0 0 60 60" fill="none" xmlns="http://www.w3.org/2000/svg">
<path d="M16.1943 56.5328V47.8672C16.1943 46.615 15.1793 45.6 13.9271 45.6C12.675 45.6 11.6599 46.615 11.6599 47.8672V56.5328C11.6599 57.7849 12.675 58.8 13.9271 58.8C15.1793 58.8 16.1943 57.7849 16.1943 56.5328Z" fill="white"/>
<path d="M43.8462 37.125H11.5385C9.70297 37.1231 7.94322 36.4469 6.64533 35.2448C5.34744 34.0426 4.6174 32.4126 4.61538 30.7125V9.5077C4.61538 8.2332 3.5822 7.20001 2.30769 7.20001C1.03319 7.20001 0 8.2332 0 9.5077L0 30.7125C0.00360335 33.546 1.22042 36.2625 3.38352 38.266C5.54662 40.2696 8.47938 41.3967 11.5385 41.4H43.8462C46.2099 41.4097 46.7695 44.2199 45.0353 45.8261L34.7707 55.3335C34.6674 55.4292 34.5744 55.5353 34.4931 55.6502C33.4172 57.1717 34.7914 59.2167 36.6066 58.7953L37.2858 58.6376C37.6743 58.5475 38.0326 58.3575 38.3252 58.0864L46.6721 50.3551C49.8776 47.386 55.3683 47.7183 55.3846 52.0875V56.5085C55.3846 57.6483 56.229 58.6117 57.3589 58.7613C57.5534 58.787 57.7515 58.7873 57.9461 58.7624C59.1157 58.613 60 57.6166 60 56.4374V52.0875C59.9952 48.1206 58.2918 44.3174 55.2634 41.5123C52.235 38.7072 48.129 37.1294 43.8462 37.125Z" fill="white"/>
<path d="M46.5851 4.3573L30.4313 0.0823017C30.0165 -0.0274339 29.5769 -0.0274339 29.1621 0.0823017L13.0082 4.3573C12.4329 4.5097 11.944 4.86327 11.6449 5.34333C11.3458 5.82339 11.2599 6.39234 11.4053 6.93L13.6438 15.2252V19.2373C13.6438 21.2022 14.0616 23.1479 14.8734 24.9632C15.6852 26.7785 16.8751 28.428 18.3751 29.8174C19.8751 31.2068 21.6559 32.3089 23.6158 33.0609C25.5757 33.8128 27.6763 34.1998 29.7976 34.1998C31.919 34.1998 34.0195 33.8128 35.9794 33.0609C37.9393 32.3089 39.7201 31.2068 41.2201 29.8174C42.7201 28.428 43.91 26.7785 44.7218 24.9632C45.5336 23.1479 45.9515 21.2022 45.9515 19.2373V15.2252L48.1899 6.93C48.3352 6.39211 48.2491 5.82296 47.9496 5.34286C47.6501 4.86276 47.1608 4.50934 46.5851 4.3573ZM29.7976 4.3603L43.1711 7.89957L41.8415 12.8248H32.1053V8.5498H27.4899V12.8248H17.7538L16.4241 7.89957L29.7976 4.3603ZM29.7976 29.9248C26.7385 29.9215 23.8057 28.7945 21.6426 26.7909C19.4795 24.7873 18.2627 22.0708 18.2591 19.2373V17.0998H41.3361V19.2373C41.3325 22.0708 40.1157 24.7873 37.9526 26.7909C35.7895 28.7945 32.8567 29.9215 29.7976 29.9248Z" fill="white"/>
</svg>
